<svg width="98" height="98" viewBox="0 0 98 98" fill="none" xmlns="http://www.w3.org/2000/svg">
<path d="M49.0042 98.0083C76.0684 98.0083 98.0083 76.0684 98.0083 49.0042C98.0083 21.9399 76.0684 0 49.0042 0C21.9399 0 0 21.9399 0 49.0042C0 76.0684 21.9399 98.0083 49.0042 98.0083Z" fill="#5699FF"/>
<path d="M89.0539 77.2117C88.2862 74.8583 87.3598 72.8387 86.2499 71.3448C83.1621 67.1972 63.6923 61.0299 62.8327 60.3373C61.9815 59.6446 59.2525 55.9559 59.2525 55.9559H59.0689V51.9168C60.2373 50.448 61.1386 48.9542 61.7228 47.7524C62.1067 46.9513 62.4405 45.2321 62.7242 43.0456C65.9289 41.5768 66.3211 36.4444 66.4546 33.5736C66.5464 31.5874 65.1694 32.1549 64.1763 32.8142C64.5018 31.3621 64.8022 29.7597 65.0442 28.0573C65.1027 27.615 65.1444 27.181 65.1778 26.7554C65.5283 24.2518 65.6618 21.7231 65.545 19.1945C65.9288 19.353 66.3211 19.5116 66.705 19.6618C65.8788 17.3418 64.5852 15.1887 62.9162 13.3777C63.2834 13.1441 63.6589 12.9187 64.0261 12.6851C62.2652 11.475 60.1956 10.7406 58.0758 10.5319C56.2649 9.12992 54.0784 8.16185 51.8502 7.58602C48.4119 6.70975 44.8317 6.65968 41.2849 6.60961C41.4268 7.25221 41.5603 7.8948 41.7022 8.5374C40.2083 7.50257 38.4892 6.77652 36.7033 6.43436C36.8952 7.24386 37.0872 8.06171 37.2875 8.87121C36.5614 8.75438 35.8354 8.64589 35.101 8.52905C35.2512 9.33855 35.4014 10.1564 35.5516 10.9659C35.1093 10.799 34.6753 10.6321 34.233 10.4735C34.2664 12.0091 34.3081 13.5363 34.3415 15.0718C34.0244 14.8298 33.7073 14.5878 33.3902 14.3458C34.1412 18.9775 32.0549 23.6843 32.5973 28.3494C32.7058 29.3007 32.9312 30.2354 33.2566 31.1367C33.3651 31.5874 33.507 32.1048 33.6572 32.6556C32.6891 32.0714 31.5208 31.7376 31.6126 33.5652C31.7461 36.4444 32.1383 41.5768 35.3513 43.0456C35.6351 45.2321 35.9689 46.9429 36.3611 47.7441C36.9286 48.9124 37.8049 50.3729 38.9398 51.8083V55.9392H38.7562C38.7562 55.9392 36.0356 59.6279 35.1761 60.3206C34.3248 61.0132 14.855 67.1722 11.7589 71.3282C10.6489 72.822 9.73096 74.8416 8.95483 77.195C17.826 89.7631 32.4555 97.9834 49.0127 97.9834C65.5533 98.0001 80.1828 89.7798 89.0539 77.2117Z" fill="white"/>
</svg>
